Enlish Subs Included

Title: Man Of Vendetta (2010)
Year: 2010
Country: South Korea
Language: Korean
Film Genre: Crime l Thriller
Subtitles: English(srt/idx, sub), Korean(smi/idx, sub)
Director: Woo Min-ho
Cast: Kim Myeong-min, Eom Gi-joon, Park Joo-mi, Kim So-hyeon-I, Lee Byeong-joon, Lee Ho-jae
Info Link: http://www.hancinema.net/korean_movie_Man_of_Vendetta.php
NFO: YES
Source: DVD9 Rental
Release Date: 2010 / 11 / 14



Man.Of.Vendetta.2010.DVDRip.x264.AC3-BAUM 17


One day, Hye Lin, the five-year old daughter of a devoted pastor, Joo Young Soo, is kidnapped. Pastor Joo, who has a rock solid faith in God at this time, prays wholeheartedly for her safe comeback, but she does not return.
Eight years later, Joo Young Soo, who now does not believe in God and leads a completely secular life, receives a call.
Hye Lin is still alive and is with the kidnapper. Joo Young Soo’s resolute attempt to rescue his daughter begins...


cover and screens

Man.Of.Vendetta
 
http://img263.imageshack.us/img263/6034/g3sj2.jpg 
http://img200.imageshack.us/img200/6779/gyfgb.jpg 
http://img529.imageshack.us/img529/9996/fcsst.jpg 
http://img713.imageshack.us/img713/5771/gexub.jpg 
http://img245.imageshack.us/img245/116/pc0aa.jpg 
http://img705.imageshack.us/img705/4958/q8qug.jpg 
http://img717.imageshack.us/img717/9120/p80i5.jpg 
http://img841.imageshack.us/img841/5875/njjzq.jpg 
http://img197.imageshack.us/img197/7016/rbmxz.jpg


Man.Of.Vendetta.2010.DVDRip.x264.AC3-BAUM 18


General
Complete name : Man.Of.Vendetta.2010.DVDRip.x264.AC3-BAUM.mkv
Format : Matroska
File size : 1.45 GiB
Duration : 1h 54mn
Overall bit rate : 1 826 Kbps
Encoded date : UTC 2010-11-14 01:28:55
Writing application : mkvmerge v4.0.0 ('The Stars were mine'wink.gif built on Jun 6 2010 16:18:42
Writing library : libebml v1.0.0 + libmatroska v1.0.0



Man.Of.Vendetta.2010.DVDRip.x264.AC3-BAUM 19


Video #1
ID : 1
Format : AVC
Format/Info : Advanced Video Codec
Format profile : High@L4.1
Format settings, CABAC : Yes
Format settings, ReFrames : 3 frames
Muxing mode : Container profile=Unknown@4.1
Codec ID : V_MPEG4/ISO/AVC
Duration : 1h 54mn
Bit rate mode : Variable
Bit rate : 1 568 Kbps
Maximum bit rate : 14.0 Mbps
Width : 720 pixels
Height : 304 pixels
Display aspect ratio : 2.35:1
Frame rate : 23.976 fps
Color space : YUV
Chroma subsampling : 4:2:0
Bit depth : 8 bits
Scan type : Progressive
Bits/(Pixel*Frame) : 0.299
Stream size : 1.22 GiB (84%)
Writing library : x264 core 98 r1649 c54c47d



Man.Of.Vendetta.2010.DVDRip.x264.AC3-BAUM 20


Audio #2
ID : 2
Format : AC-3
Format/Info : Audio Coding 3
Mode extension : CM (complete main)
Codec ID : A_AC3
Duration : 1h 54mn
Bit rate mode : Constant
Bit rate : 256 Kbps
Channel(s) : 6 channels
Channel positions : Front: L C R, Side: L R, LFE
Sampling rate : 48.0 KHz
Bit depth : 16 bits
Stream size : 209 MiB (14%)